<svg width="31" height="31" viewBox="0 0 31 31" fill="none" xmlns="http://www.w3.org/2000/svg">
<g clip-path="url(#clip0_1_646)">
<path d="M7.35195 0.200867H23.837C25.6999 0.200867 27.3871 0.956578 28.6173 2.18681C29.83 3.39946 30.6033 5.10421 30.6033 6.94955V23.4346C30.6033 25.2975 29.83 26.9847 28.6173 28.2149C27.3871 29.4276 25.6999 30.2009 23.837 30.2009H7.35195C5.50661 30.2009 3.80187 29.4276 2.58921 28.2149C1.35898 26.9847 0.603271 25.2975 0.603271 23.4346V6.94955C0.603271 5.10421 1.35898 3.39946 2.58921 2.18681C3.80187 0.956578 5.50661 0.200867 7.35195 0.200867ZM23.837 2.87222H7.35195C6.22717 2.87222 5.20784 3.32916 4.4697 4.0673C3.73157 4.80544 3.27462 5.82477 3.27462 6.94955V23.4346C3.27462 24.5594 3.73157 25.5787 4.4697 26.3169C5.20784 27.0726 6.22717 27.5295 7.35195 27.5295H23.837C24.9618 27.5295 25.9811 27.0726 26.7193 26.3169C27.475 25.5787 27.9319 24.5594 27.9319 23.4346V6.94955C27.9319 5.82477 27.475 4.80544 26.7193 4.0673C25.9811 3.32916 24.9618 2.87222 23.837 2.87222Z" fill="white"/>
<path d="M24.0128 5.43811C24.3819 5.43811 24.7334 5.57871 24.9618 5.82475C25.2079 6.0708 25.3661 6.40472 25.3661 6.77379C25.3661 7.14286 25.2079 7.49435 24.9618 7.72282C24.7334 7.96887 24.3819 8.12704 24.0128 8.12704C23.6437 8.12704 23.3098 7.96887 23.0638 7.72282C22.8177 7.49435 22.6771 7.14286 22.6771 6.77379C22.6771 6.40472 22.8177 6.0708 23.0638 5.82475C23.3098 5.57871 23.6437 5.43811 24.0128 5.43811Z" fill="white"/>
<path d="M15.5945 7.91614C17.6156 7.91614 19.4258 8.74215 20.7439 10.0427C22.062 11.3608 22.888 13.1885 22.888 15.1921C22.888 17.2131 22.062 19.0233 20.7439 20.3414C19.4258 21.6595 17.6156 22.4856 15.5945 22.4856C13.591 22.4856 11.7632 21.6595 10.4451 20.3414C9.14461 19.0233 8.3186 17.2131 8.3186 15.1921C8.3186 13.1885 9.14461 11.3608 10.4451 10.0427C11.7632 8.74215 13.591 7.91614 15.5945 7.91614ZM18.8458 11.9583C18.0198 11.1323 16.8599 10.6051 15.5945 10.6051C14.3291 10.6051 13.1868 11.1323 12.3608 11.9583C11.5348 12.7843 11.0075 13.9267 11.0075 15.1921C11.0075 16.4574 11.5348 17.6174 12.3608 18.4434C13.1868 19.2694 14.3291 19.7791 15.5945 19.7791C16.8599 19.7791 18.0198 19.2694 18.8458 18.4434C19.6719 17.6174 20.1815 16.4574 20.1815 15.1921C20.1815 13.9267 19.6719 12.7843 18.8458 11.9583Z" fill="white"/>
</g>
<defs>
<clipPath id="clip0_1_646">
<rect width="30" height="30" fill="white" transform="translate(0.599976 0.200012)"/>
</clipPath>
</defs>
</svg>
