<svg width="33" height="31" viewBox="0 0 33 31" fill="none" xmlns="http://www.w3.org/2000/svg">
<g clip-path="url(#clip0_1_645)">
<path d="M17.8967 0.19104C9.6721 0.19104 3.00502 6.90529 3.00502 15.1881C3.00292 17.0265 3.32626 18.8048 3.97507 20.523L0.660895 26.7814C0.556282 26.979 0.568902 27.1687 0.698757 27.3505C0.828611 27.5323 1.00319 27.6047 1.22248 27.5676L8.02437 26.4168C9.38468 27.6332 10.9154 28.5661 12.6164 29.2154C14.3174 29.8648 16.0775 30.1881 17.8967 30.1855C26.1212 30.1855 32.7887 23.4708 32.7887 15.188C32.7887 6.91215 26.1144 0.19104 17.8967 0.19104ZM17.9409 26.2742C16.4882 26.282 15.0891 26.0099 13.7436 25.4581C12.3982 24.9062 11.2085 24.1164 10.1745 23.0887L6.0997 23.8299C5.88339 23.8666 5.71007 23.7961 5.57973 23.6184C5.44938 23.4407 5.43338 23.2532 5.53171 23.0557L7.58957 19.0887C7.10509 17.7902 6.87167 16.4474 6.88929 15.0604C6.95742 8.97297 11.8516 4.10194 17.8967 4.10194C23.9766 4.10194 28.9049 9.06553 28.9049 15.1881C28.9049 21.3059 24.0153 26.2502 17.9409 26.2742Z" fill="white"/>
<path d="M16.3405 11.4499L15.8598 9.40626C15.8043 9.17026 15.7034 8.95598 15.557 8.76342C15.4105 8.57086 15.2314 8.41683 15.0197 8.30134C14.8079 8.18584 14.5819 8.11896 14.3418 8.10069C14.1017 8.08242 13.8683 8.11436 13.6417 8.19651L12.5333 8.59835C12.1614 8.73343 11.8721 8.97061 11.6653 9.3099C11.4585 9.64918 11.3795 10.0164 11.4282 10.4114C11.8145 13.5721 13.5925 21.2182 21.7696 22.8982C22.1013 22.9664 22.4243 22.937 22.7385 22.81C23.0526 22.6829 23.3061 22.4793 23.4989 22.199L24.1351 21.2734C24.2627 21.0877 24.3502 20.8845 24.3976 20.6638C24.4449 20.443 24.4486 20.2216 24.4085 19.9994C24.3683 19.7772 24.2875 19.5713 24.1661 19.3815C24.0446 19.1916 23.8916 19.0325 23.7073 18.9039C23.7037 18.9014 23.7001 18.8989 23.6965 18.8965L22.2984 17.9379C21.9875 17.7247 21.6442 17.6269 21.2684 17.6444C20.8927 17.6619 20.5598 17.7913 20.2698 18.0326C19.982 18.2728 19.6514 18.4023 19.278 18.4213C18.9047 18.4402 18.5628 18.3448 18.2524 18.1351C17.402 17.558 16.2509 16.6012 15.5033 15.2746C15.3308 14.9702 15.2583 14.6433 15.2856 14.294C15.313 13.9447 15.4355 13.6333 15.6531 13.3599L16.0128 12.9096C16.3584 12.4768 16.4676 11.9902 16.3405 11.4499Z" fill="white"/>
</g>
<defs>
<clipPath id="clip0_1_645">
<rect width="32.2" height="30" fill="white" transform="translate(0.599976 0.200012)"/>
</clipPath>
</defs>
</svg>
